<svg width="42" height="42" viewBox="0 0 42 42" fill="none" xmlns="http://www.w3.org/2000/svg">
<path d="M14 1C16.7614 1 19 3.23858 19 6V14C19 16.7614 16.7614 19 14 19H6C3.23858 19 1 16.7614 1 14V1H14Z" stroke="white" stroke-width="2"/>
<path d="M6 23H14C16.7614 23 19 25.2386 19 28V36C19 38.7614 16.7614 41 14 41H1V28C1 25.2386 3.23858 23 6 23Z" stroke="white" stroke-width="2"/>
<path d="M28 1H41V14C41 16.7614 38.7614 19 36 19H28C25.2386 19 23 16.7614 23 14V6C23 3.23858 25.2386 1 28 1Z" stroke="white" stroke-width="2"/>
<path d="M28 23H36C38.7614 23 41 25.2386 41 28V41H28C25.2386 41 23 38.7614 23 36V28C23 25.2386 25.2386 23 28 23Z" stroke="white" stroke-width="2"/>
</svg>
